0
SECTION
2
HEADER
9
$INSUNITS
70
1
0
ENDSEC
0
SECTION
2
TABLES
0
TABLE
2
LAYER
0
ENDTAB
0
ENDSEC
0
SECTION
2
ENTITIES
0
LINE
8
front_outsideCutPath
10
0
20
1.493
11
0
21
1.022875
0
LINE
8
front_outsideCutPath
10
0
20
1.022875
11
0.118
21
1.022875
0
LINE
8
front_outsideCutPath
10
0.118
20
1.022875
11
0.118
21
0.595125
0
LINE
8
front_outsideCutPath
10
0.118
20
0.595125
11
0
21
0.595125
0
LINE
8
front_outsideCutPath
10
0
20
0.595125
11
0
21
0.167375
0
LINE
8
front_outsideCutPath
10
0
20
0.167375
11
0
21
0.125
0
LINE
8
front_outsideCutPath
10
0
20
0.125
11
0.462625
21
0.125
0
LINE
8
front_outsideCutPath
10
0.462625
20
0.125
11
0.462625
21
0.243
0
LINE
8
front_outsideCutPath
10
0.462625
20
0.243
11
0.890375
21
0.243
0
LINE
8
front_outsideCutPath
10
0.890375
20
0.243
11
0.890375
21
0.125
0
LINE
8
front_outsideCutPath
10
0.890375
20
0.125
11
1.318125
21
0.125
0
LINE
8
front_outsideCutPath
10
1.318125
20
0.125
11
1.318125
21
0.243
0
LINE
8
front_outsideCutPath
10
1.318125
20
0.243
11
1.745875
21
0.243
0
LINE
8
front_outsideCutPath
10
1.745875
20
0.243
11
1.745875
21
0.125
0
LINE
8
front_outsideCutPath
10
1.745875
20
0.125
11
2.173625
21
0.125
0
LINE
8
front_outsideCutPath
10
2.173625
20
0.125
11
2.173625
21
0.243
0
LINE
8
front_outsideCutPath
10
2.173625
20
0.243
11
2.601375
21
0.243
0
LINE
8
front_outsideCutPath
10
2.601375
20
0.243
11
2.601375
21
0.125
0
LINE
8
front_outsideCutPath
10
2.601375
20
0.125
11
3.029125
21
0.125
0
LINE
8
front_outsideCutPath
10
3.029125
20
0.125
11
3.029125
21
0.243
0
LINE
8
front_outsideCutPath
10
3.029125
20
0.243
11
3.456875
21
0.243
0
LINE
8
front_outsideCutPath
10
3.456875
20
0.243
11
3.456875
21
0.125
0
LINE
8
front_outsideCutPath
10
3.456875
20
0.125
11
3.884625
21
0.125
0
LINE
8
front_outsideCutPath
10
3.884625
20
0.125
11
3.884625
21
0.243
0
LINE
8
front_outsideCutPath
10
3.884625
20
0.243
11
4.312375
21
0.243
0
LINE
8
front_outsideCutPath
10
4.312375
20
0.243
11
4.312375
21
0.125
0
LINE
8
front_outsideCutPath
10
4.312375
20
0.125
11
4.740125
21
0.125
0
LINE
8
front_outsideCutPath
10
4.740125
20
0.125
11
4.740125
21
0.243
0
LINE
8
front_outsideCutPath
10
4.740125
20
0.243
11
5.167875
21
0.243
0
LINE
8
front_outsideCutPath
10
5.167875
20
0.243
11
5.167875
21
0.125
0
LINE
8
front_outsideCutPath
10
5.167875
20
0.125
11
5.595625
21
0.125
0
LINE
8
front_outsideCutPath
10
5.595625
20
0.125
11
5.595625
21
0.243
0
LINE
8
front_outsideCutPath
10
5.595625
20
0.243
11
6.023375
21
0.243
0
LINE
8
front_outsideCutPath
10
6.023375
20
0.243
11
6.023375
21
0.125
0
LINE
8
front_outsideCutPath
10
6.023375
20
0.125
11
6.486
21
0.125
0
LINE
8
front_outsideCutPath
10
6.486
20
0.125
11
6.486
21
0.595125
0
LINE
8
front_outsideCutPath
10
6.486
20
0.595125
11
6.368
21
0.595125
0
LINE
8
front_outsideCutPath
10
6.368
20
0.595125
11
6.368
21
1.022875
0
LINE
8
front_outsideCutPath
10
6.368
20
1.022875
11
6.486
21
1.022875
0
LINE
8
front_outsideCutPath
10
6.486
20
1.022875
11
6.486
21
1.450625
0
LINE
8
front_outsideCutPath
10
6.486
20
1.450625
11
6.486
21
1.493
0
LINE
8
front_outsideCutPath
10
6.486
20
1.493
11
0
21
1.493
0
LINE
8
left_outsideCutPath
10
6.729
20
1.493
11
6.729
21
1.022875
0
LINE
8
left_outsideCutPath
10
6.729
20
1.022875
11
6.611
21
1.022875
0
LINE
8
left_outsideCutPath
10
6.611
20
1.022875
11
6.611
21
0.595125
0
LINE
8
left_outsideCutPath
10
6.611
20
0.595125
11
6.729
21
0.595125
0
LINE
8
left_outsideCutPath
10
6.729
20
0.595125
11
6.729
21
0.167375
0
LINE
8
left_outsideCutPath
10
6.729
20
0.167375
11
6.729
21
0.125
0
LINE
8
left_outsideCutPath
10
6.729
20
0.125
11
7.231875
21
0.125
0
LINE
8
left_outsideCutPath
10
7.231875
20
0.125
11
7.231875
21
0.243
0
LINE
8
left_outsideCutPath
10
7.231875
20
0.243
11
7.659625
21
0.243
0
LINE
8
left_outsideCutPath
10
7.659625
20
0.243
11
7.659625
21
0.125
0
LINE
8
left_outsideCutPath
10
7.659625
20
0.125
11
8.087375
21
0.125
0
LINE
8
left_outsideCutPath
10
8.087375
20
0.125
11
8.087375
21
0.243
0
LINE
8
left_outsideCutPath
10
8.087375
20
0.243
11
8.515125
21
0.243
0
LINE
8
left_outsideCutPath
10
8.515125
20
0.243
11
8.515125
21
0.125
0
LINE
8
left_outsideCutPath
10
8.515125
20
0.125
11
8.942875
21
0.125
0
LINE
8
left_outsideCutPath
10
8.942875
20
0.125
11
8.942875
21
0.243
0
LINE
8
left_outsideCutPath
10
8.942875
20
0.243
11
9.370625
21
0.243
0
LINE
8
left_outsideCutPath
10
9.370625
20
0.243
11
9.370625
21
0.125
0
LINE
8
left_outsideCutPath
10
9.370625
20
0.125
11
9.798375
21
0.125
0
LINE
8
left_outsideCutPath
10
9.798375
20
0.125
11
9.798375
21
0.243
0
LINE
8
left_outsideCutPath
10
9.798375
20
0.243
11
10.226125
21
0.243
0
LINE
8
left_outsideCutPath
10
10.226125
20
0.243
11
10.226125
21
0.125
0
LINE
8
left_outsideCutPath
10
10.226125
20
0.125
11
10.653875
21
0.125
0
LINE
8
left_outsideCutPath
10
10.653875
20
0.125
11
10.729
21
0.125
0
LINE
8
left_outsideCutPath
10
10.729
20
0.125
11
10.729
21
0.595125
0
LINE
8
left_outsideCutPath
10
10.729
20
0.595125
11
10.847
21
0.595125
0
LINE
8
left_outsideCutPath
10
10.847
20
0.595125
11
10.847
21
1.022875
0
LINE
8
left_outsideCutPath
10
10.847
20
1.022875
11
10.729
21
1.022875
0
LINE
8
left_outsideCutPath
10
10.729
20
1.022875
11
10.729
21
1.450625
0
LINE
8
left_outsideCutPath
10
10.729
20
1.450625
11
10.729
21
1.493
0
LINE
8
left_outsideCutPath
10
10.729
20
1.493
11
6.729
21
1.493
0
LINE
8
back_outsideCutPath
10
0
20
2.986
11
0
21
2.515875
0
LINE
8
back_outsideCutPath
10
0
20
2.515875
11
0.118
21
2.515875
0
LINE
8
back_outsideCutPath
10
0.118
20
2.515875
11
0.118
21
2.088125
0
LINE
8
back_outsideCutPath
10
0.118
20
2.088125
11
0
21
2.088125
0
LINE
8
back_outsideCutPath
10
0
20
2.088125
11
0
21
1.660375
0
LINE
8
back_outsideCutPath
10
0
20
1.660375
11
0
21
1.618
0
LINE
8
back_outsideCutPath
10
0
20
1.618
11
0.462625
21
1.618
0
LINE
8
back_outsideCutPath
10
0.462625
20
1.618
11
0.462625
21
1.736
0
LINE
8
back_outsideCutPath
10
0.462625
20
1.736
11
0.890375
21
1.736
0
LINE
8
back_outsideCutPath
10
0.890375
20
1.736
11
0.890375
21
1.618
0
LINE
8
back_outsideCutPath
10
0.890375
20
1.618
11
1.318125
21
1.618
0
LINE
8
back_outsideCutPath
10
1.318125
20
1.618
11
1.318125
21
1.736
0
LINE
8
back_outsideCutPath
10
1.318125
20
1.736
11
1.745875
21
1.736
0
LINE
8
back_outsideCutPath
10
1.745875
20
1.736
11
1.745875
21
1.618
0
LINE
8
back_outsideCutPath
10
1.745875
20
1.618
11
2.173625
21
1.618
0
LINE
8
back_outsideCutPath
10
2.173625
20
1.618
11
2.173625
21
1.736
0
LINE
8
back_outsideCutPath
10
2.173625
20
1.736
11
2.601375
21
1.736
0
LINE
8
back_outsideCutPath
10
2.601375
20
1.736
11
2.601375
21
1.618
0
LINE
8
back_outsideCutPath
10
2.601375
20
1.618
11
3.029125
21
1.618
0
LINE
8
back_outsideCutPath
10
3.029125
20
1.618
11
3.029125
21
1.736
0
LINE
8
back_outsideCutPath
10
3.029125
20
1.736
11
3.456875
21
1.736
0
LINE
8
back_outsideCutPath
10
3.456875
20
1.736
11
3.456875
21
1.618
0
LINE
8
back_outsideCutPath
10
3.456875
20
1.618
11
3.884625
21
1.618
0
LINE
8
back_outsideCutPath
10
3.884625
20
1.618
11
3.884625
21
1.736
0
LINE
8
back_outsideCutPath
10
3.884625
20
1.736
11
4.312375
21
1.736
0
LINE
8
back_outsideCutPath
10
4.312375
20
1.736
11
4.312375
21
1.618
0
LINE
8
back_outsideCutPath
10
4.312375
20
1.618
11
4.740125
21
1.618
0
LINE
8
back_outsideCutPath
10
4.740125
20
1.618
11
4.740125
21
1.736
0
LINE
8
back_outsideCutPath
10
4.740125
20
1.736
11
5.167875
21
1.736
0
LINE
8
back_outsideCutPath
10
5.167875
20
1.736
11
5.167875
21
1.618
0
LINE
8
back_outsideCutPath
10
5.167875
20
1.618
11
5.595625
21
1.618
0
LINE
8
back_outsideCutPath
10
5.595625
20
1.618
11
5.595625
21
1.736
0
LINE
8
back_outsideCutPath
10
5.595625
20
1.736
11
6.023375
21
1.736
0
LINE
8
back_outsideCutPath
10
6.023375
20
1.736
11
6.023375
21
1.618
0
LINE
8
back_outsideCutPath
10
6.023375
20
1.618
11
6.486
21
1.618
0
LINE
8
back_outsideCutPath
10
6.486
20
1.618
11
6.486
21
2.088125
0
LINE
8
back_outsideCutPath
10
6.486
20
2.088125
11
6.368
21
2.088125
0
LINE
8
back_outsideCutPath
10
6.368
20
2.088125
11
6.368
21
2.515875
0
LINE
8
back_outsideCutPath
10
6.368
20
2.515875
11
6.486
21
2.515875
0
LINE
8
back_outsideCutPath
10
6.486
20
2.515875
11
6.486
21
2.943625
0
LINE
8
back_outsideCutPath
10
6.486
20
2.943625
11
6.486
21
2.986
0
LINE
8
back_outsideCutPath
10
6.486
20
2.986
11
0
21
2.986
0
LINE
8
right_outsideCutPath
10
6.729
20
2.986
11
6.729
21
2.515875
0
LINE
8
right_outsideCutPath
10
6.729
20
2.515875
11
6.611
21
2.515875
0
LINE
8
right_outsideCutPath
10
6.611
20
2.515875
11
6.611
21
2.088125
0
LINE
8
right_outsideCutPath
10
6.611
20
2.088125
11
6.729
21
2.088125
0
LINE
8
right_outsideCutPath
10
6.729
20
2.088125
11
6.729
21
1.660375
0
LINE
8
right_outsideCutPath
10
6.729
20
1.660375
11
6.729
21
1.618
0
LINE
8
right_outsideCutPath
10
6.729
20
1.618
11
7.231875
21
1.618
0
LINE
8
right_outsideCutPath
10
7.231875
20
1.618
11
7.231875
21
1.736
0
LINE
8
right_outsideCutPath
10
7.231875
20
1.736
11
7.659625
21
1.736
0
LINE
8
right_outsideCutPath
10
7.659625
20
1.736
11
7.659625
21
1.618
0
LINE
8
right_outsideCutPath
10
7.659625
20
1.618
11
8.087375
21
1.618
0
LINE
8
right_outsideCutPath
10
8.087375
20
1.618
11
8.087375
21
1.736
0
LINE
8
right_outsideCutPath
10
8.087375
20
1.736
11
8.515125
21
1.736
0
LINE
8
right_outsideCutPath
10
8.515125
20
1.736
11
8.515125
21
1.618
0
LINE
8
right_outsideCutPath
10
8.515125
20
1.618
11
8.942875
21
1.618
0
LINE
8
right_outsideCutPath
10
8.942875
20
1.618
11
8.942875
21
1.736
0
LINE
8
right_outsideCutPath
10
8.942875
20
1.736
11
9.370625
21
1.736
0
LINE
8
right_outsideCutPath
10
9.370625
20
1.736
11
9.370625
21
1.618
0
LINE
8
right_outsideCutPath
10
9.370625
20
1.618
11
9.798375
21
1.618
0
LINE
8
right_outsideCutPath
10
9.798375
20
1.618
11
9.798375
21
1.736
0
LINE
8
right_outsideCutPath
10
9.798375
20
1.736
11
10.226125
21
1.736
0
LINE
8
right_outsideCutPath
10
10.226125
20
1.736
11
10.226125
21
1.618
0
LINE
8
right_outsideCutPath
10
10.226125
20
1.618
11
10.653875
21
1.618
0
LINE
8
right_outsideCutPath
10
10.653875
20
1.618
11
10.729
21
1.618
0
LINE
8
right_outsideCutPath
10
10.729
20
1.618
11
10.729
21
2.088125
0
LINE
8
right_outsideCutPath
10
10.729
20
2.088125
11
10.847
21
2.088125
0
LINE
8
right_outsideCutPath
10
10.847
20
2.088125
11
10.847
21
2.515875
0
LINE
8
right_outsideCutPath
10
10.847
20
2.515875
11
10.729
21
2.515875
0
LINE
8
right_outsideCutPath
10
10.729
20
2.515875
11
10.729
21
2.943625
0
LINE
8
right_outsideCutPath
10
10.729
20
2.943625
11
10.729
21
2.986
0
LINE
8
right_outsideCutPath
10
10.729
20
2.986
11
6.729
21
2.986
0
LINE
8
bottom_outsideCutPath
10
11.09
20
4.243
11
11.09
21
3.740125
0
LINE
8
bottom_outsideCutPath
10
11.09
20
3.740125
11
10.972
21
3.740125
0
LINE
8
bottom_outsideCutPath
10
10.972
20
3.740125
11
10.972
21
3.312375
0
LINE
8
bottom_outsideCutPath
10
10.972
20
3.312375
11
11.09
21
3.312375
0
LINE
8
bottom_outsideCutPath
10
11.09
20
3.312375
11
11.09
21
2.884625
0
LINE
8
bottom_outsideCutPath
10
11.09
20
2.884625
11
10.972
21
2.884625
0
LINE
8
bottom_outsideCutPath
10
10.972
20
2.884625
11
10.972
21
2.456875
0
LINE
8
bottom_outsideCutPath
10
10.972
20
2.456875
11
11.09
21
2.456875
0
LINE
8
bottom_outsideCutPath
10
11.09
20
2.456875
11
11.09
21
2.029125
0
LINE
8
bottom_outsideCutPath
10
11.09
20
2.029125
11
10.972
21
2.029125
0
LINE
8
bottom_outsideCutPath
10
10.972
20
2.029125
11
10.972
21
1.601375
0
LINE
8
bottom_outsideCutPath
10
10.972
20
1.601375
11
11.09
21
1.601375
0
LINE
8
bottom_outsideCutPath
10
11.09
20
1.601375
11
11.09
21
1.173625
0
LINE
8
bottom_outsideCutPath
10
11.09
20
1.173625
11
10.972
21
1.173625
0
LINE
8
bottom_outsideCutPath
10
10.972
20
1.173625
11
10.972
21
0.745875
0
LINE
8
bottom_outsideCutPath
10
10.972
20
0.745875
11
11.09
21
0.745875
0
LINE
8
bottom_outsideCutPath
10
11.09
20
0.745875
11
11.09
21
0.318125
0
LINE
8
bottom_outsideCutPath
10
11.09
20
0.318125
11
11.09
21
0.243
0
LINE
8
bottom_outsideCutPath
10
11.09
20
0.243
11
11.434625
21
0.243
0
LINE
8
bottom_outsideCutPath
10
11.434625
20
0.243
11
11.434625
21
0.125
0
LINE
8
bottom_outsideCutPath
10
11.434625
20
0.125
11
11.862375
21
0.125
0
LINE
8
bottom_outsideCutPath
10
11.862375
20
0.125
11
11.862375
21
0.243
0
LINE
8
bottom_outsideCutPath
10
11.862375
20
0.243
11
12.290125
21
0.243
0
LINE
8
bottom_outsideCutPath
10
12.290125
20
0.243
11
12.290125
21
0.125
0
LINE
8
bottom_outsideCutPath
10
12.290125
20
0.125
11
12.717875
21
0.125
0
LINE
8
bottom_outsideCutPath
10
12.717875
20
0.125
11
12.717875
21
0.243
0
LINE
8
bottom_outsideCutPath
10
12.717875
20
0.243
11
13.145625
21
0.243
0
LINE
8
bottom_outsideCutPath
10
13.145625
20
0.243
11
13.145625
21
0.125
0
LINE
8
bottom_outsideCutPath
10
13.145625
20
0.125
11
13.573375
21
0.125
0
LINE
8
bottom_outsideCutPath
10
13.573375
20
0.125
11
13.573375
21
0.243
0
LINE
8
bottom_outsideCutPath
10
13.573375
20
0.243
11
14.001125
21
0.243
0
LINE
8
bottom_outsideCutPath
10
14.001125
20
0.243
11
14.001125
21
0.125
0
LINE
8
bottom_outsideCutPath
10
14.001125
20
0.125
11
14.428875
21
0.125
0
LINE
8
bottom_outsideCutPath
10
14.428875
20
0.125
11
14.428875
21
0.243
0
LINE
8
bottom_outsideCutPath
10
14.428875
20
0.243
11
14.856625
21
0.243
0
LINE
8
bottom_outsideCutPath
10
14.856625
20
0.243
11
14.856625
21
0.125
0
LINE
8
bottom_outsideCutPath
10
14.856625
20
0.125
11
15.284375
21
0.125
0
LINE
8
bottom_outsideCutPath
10
15.284375
20
0.125
11
15.284375
21
0.243
0
LINE
8
bottom_outsideCutPath
10
15.284375
20
0.243
11
15.712125
21
0.243
0
LINE
8
bottom_outsideCutPath
10
15.712125
20
0.243
11
15.712125
21
0.125
0
LINE
8
bottom_outsideCutPath
10
15.712125
20
0.125
11
16.139875
21
0.125
0
LINE
8
bottom_outsideCutPath
10
16.139875
20
0.125
11
16.139875
21
0.243
0
LINE
8
bottom_outsideCutPath
10
16.139875
20
0.243
11
16.567625
21
0.243
0
LINE
8
bottom_outsideCutPath
10
16.567625
20
0.243
11
16.567625
21
0.125
0
LINE
8
bottom_outsideCutPath
10
16.567625
20
0.125
11
16.995375
21
0.125
0
LINE
8
bottom_outsideCutPath
10
16.995375
20
0.125
11
16.995375
21
0.243
0
LINE
8
bottom_outsideCutPath
10
16.995375
20
0.243
11
17.34
21
0.243
0
LINE
8
bottom_outsideCutPath
10
17.34
20
0.243
11
17.34
21
0.745875
0
LINE
8
bottom_outsideCutPath
10
17.34
20
0.745875
11
17.458
21
0.745875
0
LINE
8
bottom_outsideCutPath
10
17.458
20
0.745875
11
17.458
21
1.173625
0
LINE
8
bottom_outsideCutPath
10
17.458
20
1.173625
11
17.34
21
1.173625
0
LINE
8
bottom_outsideCutPath
10
17.34
20
1.173625
11
17.34
21
1.601375
0
LINE
8
bottom_outsideCutPath
10
17.34
20
1.601375
11
17.458
21
1.601375
0
LINE
8
bottom_outsideCutPath
10
17.458
20
1.601375
11
17.458
21
2.029125
0
LINE
8
bottom_outsideCutPath
10
17.458
20
2.029125
11
17.34
21
2.029125
0
LINE
8
bottom_outsideCutPath
10
17.34
20
2.029125
11
17.34
21
2.456875
0
LINE
8
bottom_outsideCutPath
10
17.34
20
2.456875
11
17.458
21
2.456875
0
LINE
8
bottom_outsideCutPath
10
17.458
20
2.456875
11
17.458
21
2.884625
0
LINE
8
bottom_outsideCutPath
10
17.458
20
2.884625
11
17.34
21
2.884625
0
LINE
8
bottom_outsideCutPath
10
17.34
20
2.884625
11
17.34
21
3.312375
0
LINE
8
bottom_outsideCutPath
10
17.34
20
3.312375
11
17.458
21
3.312375
0
LINE
8
bottom_outsideCutPath
10
17.458
20
3.312375
11
17.458
21
3.740125
0
LINE
8
bottom_outsideCutPath
10
17.458
20
3.740125
11
17.34
21
3.740125
0
LINE
8
bottom_outsideCutPath
10
17.34
20
3.740125
11
17.34
21
4.167875
0
LINE
8
bottom_outsideCutPath
10
17.34
20
4.167875
11
17.34
21
4.243
0
LINE
8
bottom_outsideCutPath
10
17.34
20
4.243
11
16.995375
21
4.243
0
LINE
8
bottom_outsideCutPath
10
16.995375
20
4.243
11
16.995375
21
4.361
0
LINE
8
bottom_outsideCutPath
10
16.995375
20
4.361
11
16.567625
21
4.361
0
LINE
8
bottom_outsideCutPath
10
16.567625
20
4.361
11
16.567625
21
4.243
0
LINE
8
bottom_outsideCutPath
10
16.567625
20
4.243
11
16.139875
21
4.243
0
LINE
8
bottom_outsideCutPath
10
16.139875
20
4.243
11
16.139875
21
4.361
0
LINE
8
bottom_outsideCutPath
10
16.139875
20
4.361
11
15.712125
21
4.361
0
LINE
8
bottom_outsideCutPath
10
15.712125
20
4.361
11
15.712125
21
4.243
0
LINE
8
bottom_outsideCutPath
10
15.712125
20
4.243
11
15.284375
21
4.243
0
LINE
8
bottom_outsideCutPath
10
15.284375
20
4.243
11
15.284375
21
4.361
0
LINE
8
bottom_outsideCutPath
10
15.284375
20
4.361
11
14.856625
21
4.361
0
LINE
8
bottom_outsideCutPath
10
14.856625
20
4.361
11
14.856625
21
4.243
0
LINE
8
bottom_outsideCutPath
10
14.856625
20
4.243
11
14.428875
21
4.243
0
LINE
8
bottom_outsideCutPath
10
14.428875
20
4.243
11
14.428875
21
4.361
0
LINE
8
bottom_outsideCutPath
10
14.428875
20
4.361
11
14.001125
21
4.361
0
LINE
8
bottom_outsideCutPath
10
14.001125
20
4.361
11
14.001125
21
4.243
0
LINE
8
bottom_outsideCutPath
10
14.001125
20
4.243
11
13.573375
21
4.243
0
LINE
8
bottom_outsideCutPath
10
13.573375
20
4.243
11
13.573375
21
4.361
0
LINE
8
bottom_outsideCutPath
10
13.573375
20
4.361
11
13.145625
21
4.361
0
LINE
8
bottom_outsideCutPath
10
13.145625
20
4.361
11
13.145625
21
4.243
0
LINE
8
bottom_outsideCutPath
10
13.145625
20
4.243
11
12.717875
21
4.243
0
LINE
8
bottom_outsideCutPath
10
12.717875
20
4.243
11
12.717875
21
4.361
0
LINE
8
bottom_outsideCutPath
10
12.717875
20
4.361
11
12.290125
21
4.361
0
LINE
8
bottom_outsideCutPath
10
12.290125
20
4.361
11
12.290125
21
4.243
0
LINE
8
bottom_outsideCutPath
10
12.290125
20
4.243
11
11.862375
21
4.243
0
LINE
8
bottom_outsideCutPath
10
11.862375
20
4.243
11
11.862375
21
4.361
0
LINE
8
bottom_outsideCutPath
10
11.862375
20
4.361
11
11.434625
21
4.361
0
LINE
8
bottom_outsideCutPath
10
11.434625
20
4.361
11
11.434625
21
4.243
0
LINE
8
bottom_outsideCutPath
10
11.434625
20
4.243
11
11.09
21
4.243
0
ENDSEC
0
EOF